<svg id="Layer_1" data-name="Layer 1" xmlns="http://www.w3.org/2000/svg" viewBox="0 0 512 512"><path d="M148.21,209.21V87.13c0-2.1,0-4.2,0-6.29.14-7.46.77-8.1,8.47-8.2,5.66-.07,11.33-.09,17,0,18.45.26,37-.31,55.33,1.11,21.75,1.67,39.54,11.74,52.35,29.84,8.47,12,11.72,25.4,10.87,39.87-.52,8.78-.61,8.54,7.24,11.94,33.88,14.66,56.53,39.26,62.82,76.12,5.12,29.93-2.79,56.84-24,79.48-20.8,22.18-46.42,33.66-76.45,34.43-35.22.9-70.47.69-105.7.86-7.27,0-7.89-.76-7.89-8.71Q148.19,273.39,148.21,209.21Z" style="fill:#545454"/><path d="M225.7,220.18l1.72-.46c.47,1.06,1,2.09,1.42,3.18,4.35,12.64,12,23,22.09,31.57,7,6,14.24,11.72,21.52,17.38,12.15,9.44,23.61,19.47,31.42,33,2.26,3.94,3.63,3.75,5.84-.69,7.06-14.2,12.06-29.08,13-45,1-17-3.7-32.26-14.67-45.55s-25.11-22.93-40.65-30c-11.89-5.39-20.52-12.26-22.35-26.14-.66-5-4.18-9.47.68-14.32,1.57-1.56,1.6-4.57-2.32-4.49-5.26.1-5.26.09-2.93-5a4.54,4.54,0,0,0,.6-1.77c-.05-1.2.06-2.78-.63-3.47s-2.41-.48-3.34,0c-7.6,3.86-15.74,3.51-23.94,3.87-6.56.29-13.9.77-19.39,3.85-8.76,4.93-16.68,10.75-27.45,10.17-3.14-.17-4.11,1.94-1.36,4.39a28.1,28.1,0,0,0,3.42,2.76c5.79,3.76,8.18,8.73,6,15.56a20.77,20.77,0,0,0-.6,3.72c-3.56,28-3.2,55.69,6.57,82.57,7.36,20.24,19.33,36.8,39.8,45.52,19.39,8.25,39,9.15,58.49-.08,7.41-3.51,7.73-4.92,2.17-10.63q-2.41-2.47-5-4.77c-8.3-7.39-16.74-14.63-24.9-22.16-9-8.29-17.3-17.22-21.74-28.87C227.41,229.83,226.81,224.91,225.7,220.18Z" style="fill:#545454"/><path d="M225.7,220.18c1.11,4.73,1.71,9.65,3.43,14.15,4.44,11.65,12.76,20.58,21.74,28.87,8.16,7.53,16.6,14.77,24.9,22.16q2.58,2.29,5,4.77c5.56,5.71,5.24,7.12-2.17,10.63-19.49,9.23-39.1,8.33-58.49.08-20.47-8.72-32.44-25.28-39.8-45.52-9.77-26.88-10.13-54.59-6.57-82.57a20.77,20.77,0,0,1,.6-3.72c2.23-6.83-.16-11.8-6-15.56a28.1,28.1,0,0,1-3.42-2.76c-2.75-2.45-1.78-4.56,1.36-4.39,10.77.58,18.69-5.24,27.45-10.17,5.49-3.08,12.83-3.56,19.39-3.85,8.2-.36,16.34,0,23.94-3.87.93-.47,2.75-.56,3.34,0s.58,2.27.63,3.47a4.54,4.54,0,0,1-.6,1.77c-2.33,5.14-2.33,5.15,2.93,5,3.92-.08,3.89,2.93,2.32,4.49-4.86,4.85-1.34,9.32-.68,14.32,1.83,13.88,10.46,20.75,22.35,26.14,15.54,7,29.58,16.56,40.65,30s15.69,28.54,14.67,45.55c-1,15.93-6,30.81-13,45-2.21,4.44-3.58,4.63-5.84.69-7.81-13.58-19.27-23.61-31.42-33-7.28-5.66-14.5-11.4-21.52-17.38-10.06-8.58-17.74-18.93-22.09-31.57-.38-1.09-1-2.12-1.42-3.18Z"/><path d="M227,159.13a10.62,10.62,0,1,0-10.42,10.27A10.33,10.33,0,0,0,227,159.13Z"/><path d="M227,159.13a10.64,10.64,0,1,1-10.5-10.19A10.32,10.32,0,0,1,227,159.13Z" style="fill:#ffde59"/><path d="M87.3,380.91H72V357.24a23.24,23.24,0,0,1,2.83-.54,26.38,26.38,0,0,1,4-.28q4.5,0,6.48,1.49c1.31,1,2,2.9,2,5.71Zm8.82-10.08a22.57,22.57,0,0,1,10.8,2.6,19,19,0,0,1,7.69,7.74,26,26,0,0,1,2.84,12.7,25.22,25.22,0,0,1-3,12.73,19.81,19.81,0,0,1-8.5,8,28.47,28.47,0,0,1-12.87,2.75A31.11,31.11,0,0,1,83,415.92a29.43,29.43,0,0,1-7-3.42A10.06,10.06,0,0,1,73,409.34a7.92,7.92,0,0,1-1-4V377.21H87.21V404a12.55,12.55,0,0,0,2.38.94,11.9,11.9,0,0,0,3.29.4,8,8,0,0,0,6.48-2.92q2.43-2.92,2.43-8.5,0-5.76-2.3-8.42a7.83,7.83,0,0,0-6.25-2.66,10.93,10.93,0,0,0-4.77,1,20,20,0,0,0-3.6,2.16V373.62a27.94,27.94,0,0,1,4.95-1.94A22,22,0,0,1,96.12,370.83Z" style="fill:#ffde59"/><path d="M142.46,417.36q-9.44,0-15.16-3.65t-5.72-11q0-6.21,3.74-9.53T136.71,389l11.79-1.25v-.63a3.87,3.87,0,0,0-2.3-3.74,15.46,15.46,0,0,0-6.62-1.13A31.41,31.41,0,0,0,133,383a35.13,35.13,0,0,0-5.9,1.81,6.25,6.25,0,0,1-2-2.48,7.94,7.94,0,0,1-.8-3.47c0-2.87,1.52-4.91,4.59-6.12a27.43,27.43,0,0,1,6.16-1.43,53.47,53.47,0,0,1,6.71-.45q9.8,0,15.7,4t5.89,12.46v20.17a5.57,5.57,0,0,1-1.3,3.82,13.15,13.15,0,0,1-3.1,2.56,23.41,23.41,0,0,1-7,2.62A45.57,45.57,0,0,1,142.46,417.36Zm0-11.16a20.28,20.28,0,0,0,3.38-.32,8.44,8.44,0,0,0,2.74-.85v-7.2l-6.48.54a10,10,0,0,0-4.14,1.08,2.91,2.91,0,0,0-1.62,2.7,3.58,3.58,0,0,0,1.4,2.92C138.67,405.82,140.24,406.2,142.46,406.2Z" style="fill:#ffde59"/><path d="M177.11,404.75c-.9-2-1.86-4.39-2.88-7.06s-2.08-5.88-3.19-9.63-2.33-8.29-3.65-13.64a11.37,11.37,0,0,1,3.38-2.2,11.21,11.21,0,0,1,4.63-.94,9.62,9.62,0,0,1,5.22,1.3q2.07,1.31,3.06,4.91,1.8,6.3,3.6,12.46t3.51,12.29h.36q1.44-4.14,2.84-9.09T196.6,383q1.22-5.17,2-10a16.35,16.35,0,0,1,3.15-1.27,13.14,13.14,0,0,1,3.42-.44,10.79,10.79,0,0,1,5.49,1.34A5,5,0,0,1,213,377.3a36,36,0,0,1-.72,6.66q-.72,3.8-2,8c-.85,2.83-1.81,5.66-2.89,8.51s-2.22,5.58-3.42,8.19-2.4,5-3.6,7.07q-5,8.72-9.36,13t-8.73,4.22a8.54,8.54,0,0,1-6-2.25,9.25,9.25,0,0,1-2.88-5.84q1.89-1.62,3.83-3.51c1.29-1.27,2.53-2.6,3.73-4a52.65,52.65,0,0,0,3.24-4.19,8.35,8.35,0,0,1-3.28-2.11A20.74,20.74,0,0,1,177.11,404.75Z" style="fill:#ffde59"/><path d="M263.34,394a25,25,0,0,1-2.93,12.42,20.12,20.12,0,0,1-8.19,8.06,25.9,25.9,0,0,1-12.46,2.84,26.45,26.45,0,0,1-12.42-2.79,19.72,19.72,0,0,1-8.24-8A25.16,25.16,0,0,1,216.18,394a24.57,24.57,0,0,1,3-12.33,20.38,20.38,0,0,1,8.28-8,25.76,25.76,0,0,1,12.33-2.83,25.38,25.38,0,0,1,12.37,2.88,20.82,20.82,0,0,1,8.24,8.09A24.38,24.38,0,0,1,263.34,394Zm-23.58-11.25a6.78,6.78,0,0,0-5.81,2.93c-1.41,1.95-2.11,4.73-2.11,8.32s.68,6.55,2.07,8.46a7.35,7.35,0,0,0,11.7,0c1.38-1.95,2.07-4.75,2.07-8.42s-.71-6.29-2.12-8.28A6.77,6.77,0,0,0,239.76,382.79Z" style="fill:#ffde59"/><path d="M294.12,382.88a11.46,11.46,0,0,0-7.79,2.88q-3.29,2.89-3.29,8.46t3.16,8.28a11.6,11.6,0,0,0,7.83,2.71,15.78,15.78,0,0,0,4.81-.68,24.49,24.49,0,0,0,3.56-1.4,9.76,9.76,0,0,1,2.56,2.7,6.81,6.81,0,0,1,.86,3.51,6.53,6.53,0,0,1-3.56,5.77q-3.56,2.14-10.12,2.15a30.35,30.35,0,0,1-13-2.6,19.07,19.07,0,0,1-8.55-7.79,24.73,24.73,0,0,1-3-12.65c0-5.27,1.1-9.64,3.33-13.09a20.64,20.64,0,0,1,8.82-7.74,27.89,27.89,0,0,1,12-2.56q6.39,0,9.94,2.34a7,7,0,0,1,3.56,6,6.55,6.55,0,0,1-.81,3.19,11.47,11.47,0,0,1-1.89,2.57,29.4,29.4,0,0,0-3.7-1.4A15.55,15.55,0,0,0,294.12,382.88Z" style="fill:#ffde59"/><path d="M356,394a25,25,0,0,1-2.93,12.42,20.12,20.12,0,0,1-8.19,8.06,25.9,25.9,0,0,1-12.46,2.84A26.45,26.45,0,0,1,320,414.57a19.78,19.78,0,0,1-8.24-8A25.16,25.16,0,0,1,308.88,394a24.57,24.57,0,0,1,3-12.33,20.38,20.38,0,0,1,8.28-8,25.79,25.79,0,0,1,12.33-2.83,25.38,25.38,0,0,1,12.37,2.88,20.82,20.82,0,0,1,8.24,8.09A24.38,24.38,0,0,1,356,394Zm-23.58-11.25a6.79,6.79,0,0,0-5.81,2.93c-1.41,1.95-2.11,4.73-2.11,8.32s.68,6.55,2.07,8.46a7.35,7.35,0,0,0,11.7,0c1.38-1.95,2.07-4.75,2.07-8.42s-.71-6.29-2.12-8.28A6.76,6.76,0,0,0,332.46,382.79Z" style="fill:#ffde59"/><path d="M377.46,385V395.3h-15.3V382.71a7.58,7.58,0,0,1,1.39-4.55,13.18,13.18,0,0,1,3.65-3.37,25.6,25.6,0,0,1,7.38-2.88,38.18,38.18,0,0,1,8.73-1q9.81,0,9.81,6.92a9.8,9.8,0,0,1-.45,3,10.41,10.41,0,0,1-1.08,2.39,19.55,19.55,0,0,0-2.16-.28c-.84-.05-1.77-.09-2.79-.09a23.49,23.49,0,0,0-4.77.54A15.91,15.91,0,0,0,377.46,385Zm-15.3,7.12h15.3v23.67c-.66.17-1.61.35-2.84.54a29.22,29.22,0,0,1-4,.26q-4.41,0-6.44-1.52t-2-5.68Z" style="fill:#ffde59"/><path d="M419.49,417.26a20.55,20.55,0,0,1-5.72-.72,32.39,32.39,0,0,1-4.63-1.71V402.05a20.51,20.51,0,0,0,3.51,2.16,9.77,9.77,0,0,0,4.5,1,8.36,8.36,0,0,0,6.88-2.93q2.39-2.92,2.39-8.5a16.78,16.78,0,0,0-1-6.26A7.35,7.35,0,0,0,422.5,384a9.24,9.24,0,0,0-4.81-1.17,11.55,11.55,0,0,0-3.15.41,11.73,11.73,0,0,0-2.43.95V411H396.9V381.71a7.35,7.35,0,0,1,1-4,9.12,9.12,0,0,1,2.84-2.79A24.33,24.33,0,0,1,408,372a39.25,39.25,0,0,1,9.72-1.12,31.85,31.85,0,0,1,12.78,2.38,18.25,18.25,0,0,1,8.55,7.47c2,3.39,3.06,7.76,3.06,13.1a25.68,25.68,0,0,1-3,12.87,19.94,19.94,0,0,1-8.06,7.92A24.25,24.25,0,0,1,419.49,417.26Zm-14.13,15.49c-2.94,0-5.09-.52-6.44-1.54s-2-2.91-2-5.67V407.28h15.3v24.65a23.47,23.47,0,0,1-2.84.54A26.25,26.25,0,0,1,405.36,432.75Z" style="fill:#ffde59"/><path d="M308,430.73l-.09-1.77,6.48-.92a2.7,2.7,0,0,0-.76-1.76,2.5,2.5,0,0,0-1.9-.72,2.76,2.76,0,0,0-2.13.91,3.7,3.7,0,0,0-.86,2.58l0,.9a3.52,3.52,0,0,0,1.16,2.44,3.89,3.89,0,0,0,2.57.8,4.84,4.84,0,0,0,1.77-.31,5.71,5.71,0,0,0,1.29-.65,1.38,1.38,0,0,1,.47.46,1.13,1.13,0,0,1,.17.6,1.2,1.2,0,0,1-.51.94,3.55,3.55,0,0,1-1.38.64,7.35,7.35,0,0,1-2,.23,7.16,7.16,0,0,1-3.12-.65,4.75,4.75,0,0,1-2.08-2,6.36,6.36,0,0,1-.73-3.18,6.52,6.52,0,0,1,.41-2.43,5,5,0,0,1,1.13-1.75,4.74,4.74,0,0,1,1.68-1.07,5.85,5.85,0,0,1,2.07-.37,5.35,5.35,0,0,1,2.58.61A4.4,4.4,0,0,1,316,426a4.91,4.91,0,0,1,.62,2.48,1.15,1.15,0,0,1-.29.85,1.34,1.34,0,0,1-.79.34Z" style="fill:#fff"/><path d="M326.88,431.81a2.88,2.88,0,0,1-1.15,2.42,5.47,5.47,0,0,1-3.34.87,6.89,6.89,0,0,1-2.94-.54c-.77-.36-1.15-.81-1.15-1.34a1.26,1.26,0,0,1,.17-.67,1.16,1.16,0,0,1,.47-.46,8.89,8.89,0,0,0,1.48.76,5,5,0,0,0,1.92.34c1.41,0,2.12-.46,2.12-1.38a1.26,1.26,0,0,0-.36-.93,2.13,2.13,0,0,0-1.11-.52l-1.57-.39a4.67,4.67,0,0,1-2.3-1.12,2.74,2.74,0,0,1-.73-2,2.87,2.87,0,0,1,1.1-2.28,4.9,4.9,0,0,1,3.2-.92,7.45,7.45,0,0,1,1.92.22,3.53,3.53,0,0,1,1.32.61,1.15,1.15,0,0,1,.49.9,1.22,1.22,0,0,1-.17.64,1,1,0,0,1-.43.41c-.19-.1-.43-.23-.74-.36a5.54,5.54,0,0,0-2.25-.49,3,3,0,0,0-1.51.33,1,1,0,0,0-.56.94,1.07,1.07,0,0,0,.32.76,2.18,2.18,0,0,0,1.06.48l1.36.35a5.28,5.28,0,0,1,2.55,1.2A2.9,2.9,0,0,1,326.88,431.81Z" style="fill:#fff"/><path d="M331.5,429.35h-2.39v-8.3l.46-.12a3.24,3.24,0,0,1,.64-.06,1.55,1.55,0,0,1,1,.25,1.09,1.09,0,0,1,.31.87Zm-2.39-.64h2.39v2.92a1.33,1.33,0,0,0,.49,1.16,2.25,2.25,0,0,0,1.35.36,3,3,0,0,0,.83-.13,4.59,4.59,0,0,0,.75-.26,1.38,1.38,0,0,1,.29.4,1.08,1.08,0,0,1,.13.54,1.17,1.17,0,0,1-.62,1,3.52,3.52,0,0,1-1.84.39,4.42,4.42,0,0,1-2.75-.77,3,3,0,0,1-1-2.56Zm1.38-2.55v-1.91h4.57a1.22,1.22,0,0,1,.18.38,2,2,0,0,1,.08.56,1,1,0,0,1-.23.72.81.81,0,0,1-.63.25Z" style="fill:#fff"/><path d="M336.44,433.56a1.6,1.6,0,0,1,.41-1.11A1.4,1.4,0,0,1,338,432a1.43,1.43,0,0,1,1.12.45,1.64,1.64,0,0,1,.4,1.11,1.59,1.59,0,0,1-.4,1.09,1.43,1.43,0,0,1-1.12.45,1.4,1.4,0,0,1-1.11-.45A1.55,1.55,0,0,1,336.44,433.56Z" style="fill:#fff"/><path d="M350.11,430.23h-2.44v-7.09l-2.76,1.18a1.42,1.42,0,0,1-.55-.42,1.07,1.07,0,0,1-.23-.73,1.34,1.34,0,0,1,1.05-1.27l3-1.26h.55a1.31,1.31,0,0,1,1,.35,1.33,1.33,0,0,1,.36,1Zm-2.44-1.52h2.44v6.07a2.93,2.93,0,0,1-.48.13,3.24,3.24,0,0,1-.65,0,1.57,1.57,0,0,1-1-.25,1,1,0,0,1-.32-.87Z" style="fill:#fff"/><path d="M353.78,433.49a1.26,1.26,0,0,1,.18-.63,1,1,0,0,1,.42-.45,6.55,6.55,0,0,0,1.19.47,5,5,0,0,0,1.55.22,4.46,4.46,0,0,0,2.06-.47,3.46,3.46,0,0,0,1.45-1.48,5.65,5.65,0,0,0,.54-2.65,4.66,4.66,0,0,1-.69.53,4.76,4.76,0,0,1-1.11.51,5.12,5.12,0,0,1-1.49.2,6,6,0,0,1-2.42-.47,3.88,3.88,0,0,1-1.76-1.47,4.65,4.65,0,0,1-.65-2.56,4.8,4.8,0,0,1,.63-2.49,4.34,4.34,0,0,1,1.77-1.65,6,6,0,0,1,5.51.15,4.86,4.86,0,0,1,1.94,2.27,9.24,9.24,0,0,1,.71,3.86,10.51,10.51,0,0,1-.8,4.43,5.29,5.29,0,0,1-2.21,2.5,6.61,6.61,0,0,1-3.3.79,6.74,6.74,0,0,1-2.5-.41Q353.78,434.27,353.78,433.49Zm4.54-5.68a3.34,3.34,0,0,0,1.74-.47,2.68,2.68,0,0,0,1.08-1.09l0,.11a4.57,4.57,0,0,0-.79-2.85,2.69,2.69,0,0,0-2.27-1,2.55,2.55,0,0,0-1.86.72,2.64,2.64,0,0,0-.74,2,2.35,2.35,0,0,0,.84,2A3.26,3.26,0,0,0,358.32,427.81Z" style="fill:#fff"/><path d="M370.92,435.1a7.64,7.64,0,0,1-2.82-.48,4.19,4.19,0,0,1-1.87-1.39,3.59,3.59,0,0,1-.67-2.2,3.46,3.46,0,0,1,.53-1.95,3.91,3.91,0,0,1,1.36-1.29,5.3,5.3,0,0,1,1.72-.65l1.4-.29a5.51,5.51,0,0,0,2.22-.88,1.84,1.84,0,0,0,.75-1.54,1.75,1.75,0,0,0-.7-1.48,3.08,3.08,0,0,0-1.92-.54A3,3,0,0,0,369,423a1.78,1.78,0,0,0-.71,1.47,1.8,1.8,0,0,0,.4,1.23,2.54,2.54,0,0,0,1.11.73,6.93,6.93,0,0,0,1.55.34l1.38.48a6.55,6.55,0,0,1,1.69.67,3.89,3.89,0,0,1,1.32,1.23,3.44,3.44,0,0,1,.51,1.94,3.59,3.59,0,0,1-.68,2.19,4.14,4.14,0,0,1-1.88,1.39A7.47,7.47,0,0,1,370.92,435.1Zm0-1.93a3.67,3.67,0,0,0,2.13-.57,1.92,1.92,0,0,0,.81-1.66,2.21,2.21,0,0,0-1-1.91,5.63,5.63,0,0,0-2.81-.83l-1.13-.46a4.72,4.72,0,0,1-2.17-1.2,3,3,0,0,1-.82-2.18,3.44,3.44,0,0,1,.64-2.07A3.86,3.86,0,0,1,368.3,421a6.81,6.81,0,0,1,2.62-.46,5.87,5.87,0,0,1,3.68,1,3.4,3.4,0,0,1,1.33,2.85,2.86,2.86,0,0,1-.89,2.22,4.79,4.79,0,0,1-2.21,1.12l-1.73.46a4.46,4.46,0,0,0-2.3.95A2.36,2.36,0,0,0,368,431a1.9,1.9,0,0,0,.8,1.62A3.54,3.54,0,0,0,370.92,433.17Z" style="fill:#fff"/><path d="M383.82,435.1a5.43,5.43,0,0,1-2.93-.8,5.34,5.34,0,0,1-2-2.43,10.08,10.08,0,0,1-.71-4.08,9.59,9.59,0,0,1,.78-4.18,5.38,5.38,0,0,1,2.06-2.35,5.54,5.54,0,0,1,5.62,0,5.42,5.42,0,0,1,2.07,2.38,9.49,9.49,0,0,1,.78,4.14,10,10,0,0,1-.72,4.06,5.51,5.51,0,0,1-2,2.44A5.41,5.41,0,0,1,383.82,435.1Zm0-2a2.64,2.64,0,0,0,2.38-1.36,7.56,7.56,0,0,0,.84-3.95,8.59,8.59,0,0,0-.44-3,3.76,3.76,0,0,0-1.15-1.71,2.66,2.66,0,0,0-3.25,0,3.78,3.78,0,0,0-1.14,1.74,9.29,9.29,0,0,0-.41,3,7.56,7.56,0,0,0,.84,3.95A2.6,2.6,0,0,0,383.82,433.1Z" style="fill:#fff"/></svg>